<svg xmlns:xlink="http://www.w3.org/1999/xlink" xmlns="http://www.w3.org/2000/svg" viewBox="0 0 185 41.890685187445754" height="41.890685187445754" width="185" style="width: 185px; height: 41.8907px; position: absolute; top: 50%; left: 50%; transform: translate(-50%, -50%) scale(0.677838); z-index: 0; cursor: pointer;"><defs id="SvgjsDefs1455"><linearGradient id="SvgjsLinearGradient1460"><stop id="SvgjsStop1461" stop-color="#8f5e25" offset="0"></stop><stop id="SvgjsStop1462" stop-color="#fbf4a1" offset="0.5"></stop><stop id="SvgjsStop1463" stop-color="#8f5e25" offset="1"></stop></linearGradient><linearGradient id="SvgjsLinearGradient1464"><stop id="SvgjsStop1465" stop-color="#8f5e25" offset="0"></stop><stop id="SvgjsStop1466" stop-color="#fbf4a1" offset="0.5"></stop><stop id="SvgjsStop1467" stop-color="#8f5e25" offset="1"></stop></linearGradient><linearGradient id="SvgjsLinearGradient1460"><stop id="SvgjsStop1461" stop-color="#8f5e25" offset="0"></stop><stop id="SvgjsStop1462" stop-color="#fbf4a1" offset="0.5"></stop><stop id="SvgjsStop1463" stop-color="#8f5e25" offset="1"></stop></linearGradient><linearGradient id="SvgjsLinearGradient1460"><stop id="SvgjsStop1461" stop-color="#8f5e25" offset="0"></stop><stop id="SvgjsStop1462" stop-color="#fbf4a1" offset="0.5"></stop><stop id="SvgjsStop1463" stop-color="#8f5e25" offset="1"></stop></linearGradient><linearGradient id="SvgjsLinearGradient1460"><stop id="SvgjsStop1461" stop-color="#8f5e25" offset="0"></stop><stop id="SvgjsStop1462" stop-color="#fbf4a1" offset="0.5"></stop><stop id="SvgjsStop1463" stop-color="#8f5e25" offset="1"></stop></linearGradient><linearGradient id="SvgjsLinearGradient1460"><stop id="SvgjsStop1461" stop-color="#8f5e25" offset="0"></stop><stop id="SvgjsStop1462" stop-color="#fbf4a1" offset="0.5"></stop><stop id="SvgjsStop1463" stop-color="#8f5e25" offset="1"></stop></linearGradient><linearGradient id="SvgjsLinearGradient1460"><stop id="SvgjsStop1461" stop-color="#8f5e25" offset="0"></stop><stop id="SvgjsStop1462" stop-color="#fbf4a1" offset="0.5"></stop><stop id="SvgjsStop1463" stop-color="#8f5e25" offset="1"></stop></linearGradient><linearGradient id="SvgjsLinearGradient1460"><stop id="SvgjsStop1461" stop-color="#8f5e25" offset="0"></stop><stop id="SvgjsStop1462" stop-color="#fbf4a1" offset="0.5"></stop><stop id="SvgjsStop1463" stop-color="#8f5e25" offset="1"></stop></linearGradient><linearGradient id="SvgjsLinearGradient1460"><stop id="SvgjsStop1461" stop-color="#8f5e25" offset="0"></stop><stop id="SvgjsStop1462" stop-color="#fbf4a1" offset="0.5"></stop><stop id="SvgjsStop1463" stop-color="#8f5e25" offset="1"></stop></linearGradient><linearGradient id="SvgjsLinearGradient1460"><stop id="SvgjsStop1461" stop-color="#8f5e25" offset="0"></stop><stop id="SvgjsStop1462" stop-color="#fbf4a1" offset="0.5"></stop><stop id="SvgjsStop1463" stop-color="#8f5e25" offset="1"></stop></linearGradient><linearGradient id="SvgjsLinearGradient1460"><stop id="SvgjsStop1461" stop-color="#8f5e25" offset="0"></stop><stop id="SvgjsStop1462" stop-color="#fbf4a1" offset="0.5"></stop><stop id="SvgjsStop1463" stop-color="#8f5e25" offset="1"></stop></linearGradient><linearGradient id="SvgjsLinearGradient1464"><stop id="SvgjsStop1465" stop-color="#8f5e25" offset="0"></stop><stop id="SvgjsStop1466" stop-color="#fbf4a1" offset="0.5"></stop><stop id="SvgjsStop1467" stop-color="#8f5e25" offset="1"></stop></linearGradient><linearGradient id="SvgjsLinearGradient1464"><stop id="SvgjsStop1465" stop-color="#8f5e25" offset="0"></stop><stop id="SvgjsStop1466" stop-color="#fbf4a1" offset="0.5"></stop><stop id="SvgjsStop1467" stop-color="#8f5e25" offset="1"></stop></linearGradient></defs><g id="SvgjsG1456" featurekey="2ou6gm-0" transform="matrix(0.7222222222222223,0,0,0.7222222222222223,-5.416665977901883,-8.66594621870253)" fill="url(&quot;#SvgjsLinearGradient1460&quot;)"><g xmlns="http://www.w3.org/2000/svg" fill="url(&quot;#SvgjsLinearGradient1460&quot;)"><path d="M67.45,38.21c2.386-0.735,4.701-1.243,6.837-1.59c-0.093-3.854-0.606-7.039-0.977-8.869   c-1.529,0.566-3.999,1.585-6.803,3.117c0.465,1.814,0.781,3.701,0.896,5.643C67.438,37.08,67.453,37.646,67.45,38.21z" fill="url(&quot;#SvgjsLinearGradient1460&quot;)"></path><path d="M76.453,53.136c2.3-4.647,3.571-9.216,4.185-12.318c-8.436,0.364-26.668-1.547-32.941,23.198   c-0.422,1.665-1.195,4.001-1.822,5.779C47.808,69.527,66.508,73.23,76.453,53.136z" fill="url(&quot;#SvgjsLinearGradient1460&quot;)"></path><path d="M80.278,52.645c-0.294,0.651-0.603,1.306-0.937,1.962c-3.69,7.25-8.723,12.306-15.028,15.132   C82.337,71.826,97.5,60.68,97.5,60.68S90.425,55.336,80.278,52.645z" fill="url(&quot;#SvgjsLinearGradient1460&quot;)"></path><path d="M49.97,49.317c3.307-3.979,7.621-7.131,12.923-9.428c0.425-0.184,0.849-0.358,1.271-0.524   c0.051-0.875,0.057-1.757,0.005-2.646c-0.687-11.733-9.869-21.63-13.045-24.72c-2.019,2.018-6.491,6.902-9.557,13.308   c-2.413,5.043-3.47,9.912-3.183,14.584C43.182,42.243,47.052,45.395,49.97,49.317z" fill="url(&quot;#SvgjsLinearGradient1460&quot;)"></path><path d="M22.501,53.768c-0.073-0.14-0.141-0.277-0.211-0.416c-8.953,2.861-8.482,2.56-14.79,7.328c0,0,14.662,10.778,32.285,9.155   C32.494,67.09,26.692,61.702,22.501,53.768z" fill="url(&quot;#SvgjsLinearGradient1460&quot;)"></path><path d="M21.002,40.168c0.672,3.045,1.968,7.545,4.365,12.084c4.217,7.985,10.187,13.117,17.759,15.273   c0.175-0.484,1.199-8.642,4.928-14.881C42.058,41.77,27.632,40.313,21.002,40.168z" fill="url(&quot;#SvgjsLinearGradient1460&quot;)"></path><path d="M36.04,31.073c-2.962-1.652-5.584-2.733-7.183-3.324c-0.36,1.796-0.86,4.894-0.97,8.638   c2.323,0.475,4.782,1.146,7.246,2.09C35.123,36.046,35.42,33.574,36.04,31.073z" fill="url(&quot;#SvgjsLinearGradient1460&quot;)"></path></g></g><g id="SvgjsG1457" featurekey="kZnDdN-0" transform="matrix(2.3485205415365273,0,0,2.3485205415365273,80.58478083317901,-10.547203476481242)" fill="url(&quot;#SvgjsLinearGradient1464&quot;)"><path d="M6.18 6.800000000000001 c2.22 0 3.56 1.26 3.56 3.6 l0 2.52 c0 2.14 -1.32 3.58 -3.56 3.58 l-1.68 0 l0 3.32 c0 0.1 -0.08 0.18 -0.18 0.18 l-2.3 0 c-0.08 0 -0.14 -0.08 -0.14 -0.18 l0 -12.84 c0 -0.1 0.06 -0.18 0.14 -0.18 l4.16 0 z M7.12 12.32 l0 -1.32 c0 -1.38 -0.64 -1.52 -2.04 -1.52 l-0.58 0 l0 4.4 l0.58 0 c1.1 0 2.04 -0.2 2.04 -1.56 z M8.54 12.780000000000001 l0 -2.5 c0 -2.2 -1.7 -2.38 -2.62 -2.38 l-2.7 0 c-0.04 0 -0.12 0.06 -0.12 0.12 l0 10.76 c0 0.14 0.24 0.14 0.24 0 l0 -3.4 l2.4 0 c1.76 0 2.8 -0.62 2.8 -2.6 z M3.34 8.16 l2.58 0 c2.22 0 2.36 1.46 2.36 2.12 l0 2.5 c0 2.04 -1.28 2.32 -2.54 2.32 l-2.4 0 l0 -6.94 z M16.9 6.619999999999999 c1.72 0 2.92 0.38 3.68 1.2 c0.6 0.66 0.88 1.6 0.88 2.94 l0 5.26 c0 1.38 -0.28 2.34 -0.88 2.98 c-0.78 0.8 -1.96 1.2 -3.68 1.2 c-1.78 0 -2.94 -0.4 -3.7 -1.2 c-0.58 -0.64 -0.9 -1.6 -0.9 -2.98 l0 -5.26 c0 -1.34 0.32 -2.28 0.9 -2.96 c0.78 -0.8 1.96 -1.18 3.7 -1.18 z M18.799999999999997 15.42 l0 -4 c0 -1.76 -0.94 -2.12 -1.8 -2.12 l-0.24 0 c-1.28 0 -1.78 0.82 -1.78 2.12 l0 4 c0 1.76 0.94 2.14 1.78 2.14 l0.24 0 c1.28 0 1.78 -0.86 1.8 -2.14 z M13.559999999999999 10.9 l0 4.96 c0 0.94 0.24 1.72 0.8 2.3 c0.52 0.52 1.32 0.8 2.3 0.8 l0.52 0 c1.88 0 3.1 -1.2 3.1 -3.1 l0 -4.96 c0 -2.04 -1.08 -3.14 -3.1 -3.14 l-0.52 0 c-2.04 0 -3.1 1.1 -3.1 3.14 z M17.18 18.7 l-0.52 0 c-0.94 0 -1.64 -0.24 -2.14 -0.74 s-0.76 -1.2 -0.76 -2.1 l0 -4.96 c0 -1.9 1.02 -2.9 2.9 -2.9 l0.52 0 c1.9 0 2.84 0.98 2.84 2.9 l0 4.96 c0 0.84 -0.26 1.6 -0.8 2.12 c-0.52 0.44 -1.22 0.72 -2.04 0.72 z M29.459999999999997 11.9 c1.52 0.72 3.5 1.86 3.5 3.92 c0 0.6 -0.1 1.76 -0.76 2.74 c-0.74 1.1 -1.9 1.64 -3.5 1.64 c-1.7 0 -3.68 -0.82 -4.3 -2.68 c-0.02 -0.06 0 -0.12 0.06 -0.16 l1.84 -1.58 c0.08 -0.06 0.2 -0.06 0.26 0.04 c0.04 0.1 0.12 0.26 0.22 0.46 c0.3 0.62 1.02 1.24 1.82 1.24 c0.62 0 1.46 -0.34 1.46 -1.3 c0 -0.92 -1.26 -1.44 -2.04 -1.74 c-0.9 -0.36 -1.82 -0.82 -2.6 -1.5 c-0.82 -0.76 -1.22 -1.6 -1.22 -2.6 c0 -2.5 2.3 -3.76 4.48 -3.76 c1.72 0 3 0.9 3.84 2.68 c0.04 0.08 0 0.18 -0.06 0.22 l-1.78 1.24 c-0.08 0.04 -0.12 0.04 -0.2 -0.06 c-0.68 -0.98 -1.28 -1.44 -2.08 -1.44 c-0.42 0 -1.4 0.16 -1.4 0.9 c0 0.9 1.66 1.36 2.46 1.74 z M25.82 17.42 c0.5 1 1.88 1.58 3 1.58 c1.46 0 2.64 -1 2.8 -2.52 c0.2 -1.86 -1.26 -2.66 -2.7 -3.38 l-0.64 -0.28 c-1.48 -0.66 -2.56 -1.16 -2.56 -2.54 c0 -1.52 1.4 -2.22 2.78 -2.22 c1.26 0 1.92 0.74 2.26 1.2 c0.12 0.16 0.32 0.02 0.2 -0.14 c-0.34 -0.42 -1.06 -1.3 -2.46 -1.3 c-1.58 0 -3.02 0.78 -3.02 2.46 c0 1.5 1.2 2.08 2.72 2.78 l0.62 0.3 c1.98 0.94 2.7 1.82 2.54 3.1 c-0.3 2.04 -1.86 2.3 -2.54 2.3 c-1.5 0 -2.5 -0.9 -2.8 -1.46 c-0.1 -0.1 -0.24 0 -0.2 0.12 z M41.82 12 l0 -5.02 c0 -0.1 0.08 -0.18 0.18 -0.18 l2.28 0 c0.1 0 0.18 0.08 0.18 0.18 l0 12.84 c0 0.1 -0.08 0.18 -0.18 0.18 l-2.28 0 c-0.1 0 -0.18 -0.08 -0.18 -0.18 l0 -5.32 l-3.24 0 l0 5.32 c0 0.1 -0.08 0.18 -0.18 0.18 l-2.28 0 c-0.1 0 -0.16 -0.08 -0.16 -0.18 l0 -12.84 c0 -0.1 0.06 -0.18 0.16 -0.18 l2.28 0 c0.1 0 0.18 0.08 0.18 0.18 l0 5.02 l3.24 0 z M37.12 18.76 c0 0.16 0.26 0.14 0.26 0 l0 -5.36 l5.62 0 l0 5.36 c0 0.14 0.22 0.16 0.22 0 l0 -10.76 c0 -0.14 -0.22 -0.18 -0.22 0 l0 5.12 l-5.62 0 l0 -5.12 c0 -0.14 -0.26 -0.14 -0.26 0 l0 10.76 z" fill="url(&quot;#SvgjsLinearGradient1464&quot;)"></path></g></svg>